<svg width="640" version="1.1" xmlns="http://www.w3.org/2000/svg" height="480">
<path style="fill:#dedede" id="path2999" d="m56.2358,257.75 .2642-134.25l2.1675-4c2.5826-4.7661 9.4642-11.5558 14.3325-14.1413 2.9984-1.5923 6.3307-1.9053 23.25-2.1838l19.75-.3251v117.5751 117.5751h71 71v27 27h-101.0142-101.0142l.2642-134.25zm210,0 .2642-134.25 2.1675-4c2.5826-4.7661 9.4642-11.5558 14.3325-14.1413 2.9984-1.5923 6.3307-1.9053 23.25-2.1838l19.75-.3251v144.5751 144.5751h-30.0142-30.0142l.2642-134.25zm63.0091,132.5c1.574-5.7606 95.2682-268.4763 96.9161-271.75 2.6306-5.2258 7.3593-10.1457 12.339-12.8376 3.7965-2.0523 5.4816-2.1779 33.1188-2.4671l29.1188-.3048 3.5823,9.8048c1.9703,5.3926 25.1654,69.2048 51.5449,141.8048 26.3794,72.6 48.4427,133.2437 49.0294,134.7638l1.0668,2.7638-32.1739-.2638-32.1739-.2638-9.4936-29.2582-9.4936-29.2582-55.9227,.2582-55.9227,.2582-9.1404,29.2441-9.1404,29.2441-31.8666,.006c-29.8663,.006-31.8366-.1039-31.3885-1.7441zm176.7666-107c.02-1.3099-38.237-117.716-38.948-118.5085-.3743-.4172-9.3795,25.6828-20.0117,58-10.6322,32.3172-19.5415,59.321-19.7985,60.0085-.3689,.9868 7.8716,1.25 39.1397,1.25 21.7839,0 39.6121-.3375 39.6185-.75z"/>
<path style="fill:#1770c4" id="path2997" d="m56,357.441c0-27.3817 .2596-34.4028 1.25-33.8069 .6875,.4137 3.6084,2.2514 6.4908,4.0839 15.6051,9.9206 38.4669,19.5616 58.7948,24.7944 20.4393,5.2615 33.2859,6.8663 54.9643,6.8663 13.0965,0 22.5621-.5454 30.4643-1.7553 12.8615-1.9693 34.8068-7.368 42.8227-10.5347 2.9079-1.1488 5.4954-2.0887 5.75-2.0887 .2546,0 .463,10.575 .463,23.5v23.5h-100.5-100.5v-34.559zm210,9.1382 0-25.4208 10.2352-5.1802c13.5254-6.8454 26.9534-15.5903 39.5148-25.7337l10.25-8.2769v45.0162 45.0162h-30-30v-25.4208zm63.0109,25.1708c.006-.1375 21.8123-61.6239 48.4586-136.6364 31.1404-87.6642 49.4449-137.8294 51.2391-140.4255 3.0868-4.4664 9.8156-9.1833 15.2569-10.6949 1.944-.5401 7.4417-.9844 12.2171-.9875 9.8594-.006 9.0088-.8379 10.7353,10.4944 2.0673,13.5681 3.0812,27.8688 3.0031,42.356-.0778,14.4418-.1002,14.584-1.6173,10.2921l-1.5384-4.3519-19.8776,60.3519c-10.9327,33.1936-19.8799,60.6719-19.8827,61.063-.003,.3911 3.8163,.8411 8.4869,1l8.492,.2889-6.8144,13.527c-3.7479,7.4399-9.774,18.2399-13.3912,24-6.0844,9.6889-6.8335,10.4954-10.0055,10.7731-3.3593,.294-3.4739,.4562-5.6569,8.0113-2.0622,7.1368-2.9958,8.6055-12.535,19.7179-5.6688,6.6037-14.9127,16.3861-20.542,21.7387l-10.2352,9.732h-17.9018c-9.846,0-17.8969-.1125-17.8909-.25zm203.5384-29.2275-9.5936-29.4775-17.8612-.2725-17.8612-.2725 4.4896-7.5c2.4693-4.125 8.2256-15.15 12.7919-24.5 12.8886-26.3913 21.6686-52.4765 26.9269-80 1.4711-7.7 2.993-15.5334 3.3821-17.4076 .6196-2.9849 5.0161,8.4436 35.4417,92.1295 19.1039,52.5454 34.7343,95.8163 34.7343,96.1576 0,.3413-14.1429,.6205-31.4286,.6205h-31.4286l-9.5936-29.4775zm-430.0493-69.0312c-13.2638-3.4693-25.7497-8.0967-36.7744-13.6291l-9.7744-4.9049 .2744-75.2286 .2744-75.2286 2.2561-4.2222c3.3629-6.2934 7.4863-10.5416 13.425-13.8314 5.2962-2.9339 5.4007-2.9478 24.5689-3.2729l19.25-.3265v96.5765 96.5765l-2.25-.0773c-1.2375-.0425-6.3-1.1366-11.25-2.4314zm163.723-101.1256 .277-67.8658l2.9464-5.3188c3.2898-5.9387 7.538-10.0621 13.8314-13.425 3.8856-2.0763 5.7568-2.2822 23.4722-2.5826l19.25-.3265v40.0931 40.0931l-5.3945,10.7334c-12.2443,24.3622-28.1105,44.2943-49.4316,62.0991l-5.228,4.3658 .277-67.8657z"/>
</svg>
